HIERARCHY
ROOT Hips
{
	OFFSET -3.958830 18.904000 13.208200
	CHANNELS 6 Xposition Yposition Zposition Zrotation Yrotation Xrotation 
	JOINT LHipJoint
	{
		OFFSET 0.000000 0.000000 0.000000
		CHANNELS 3 Zrotation Yrotation Xrotation
		JOINT LeftUpLeg
		{
			OFFSET 1.800000 -1.400000 0.085000
			CHANNELS 3 Zrotation Yrotation Xrotation
			JOINT LeftLeg
			{
				OFFSET 2.215000 -6.000000 0.000000
				CHANNELS 3 Zrotation Yrotation Xrotation
				JOINT LeftFoot
				{
					OFFSET 2.500000 -6.900000 0.000000
					CHANNELS 3 Zrotation Yrotation Xrotation
					JOINT LeftToeBase
					{
						OFFSET 0.200000 -0.500000 1.950000
						CHANNELS 3 Zrotation Yrotation Xrotation
						End Site
						{
							OFFSET 0.000000 0.000000 0.000000
						}
					}
				}
			}
		}
	}
	JOINT RHipJoint
	{
		OFFSET 0.000000 0.000000 0.000000
		CHANNELS 3 Zrotation Yrotation Xrotation
		JOINT RightUpLeg
		{
			OFFSET -1.800000 -1.400000 0.085000
			CHANNELS 3 Zrotation Yrotation Xrotation
			JOINT RightLeg
			{
				OFFSET -2.215000 -6.000000 0.000000
				CHANNELS 3 Zrotation Yrotation Xrotation
				JOINT RightFoot
				{
					OFFSET -2.500000 -6.900000 0.000000
					CHANNELS 3 Zrotation Yrotation Xrotation
					JOINT RightToeBase
					{
						OFFSET -0.200000 -0.500000 1.950000
						CHANNELS 3 Zrotation Yrotation Xrotation
						End Site
						{
							OFFSET 0.000000 0.000000 0.000000
						}
					}
				}
			}
		}
	}
	JOINT LowerBack
	{
		OFFSET 0.000000 0.000000 0.000000
		CHANNELS 3 Zrotation Yrotation Xrotation
		JOINT Spine
		{
			OFFSET -0.087000 1.940000 -0.288900
			CHANNELS 3 Zrotation Yrotation Xrotation
			JOINT Spine1
			{
				OFFSET 0.000000 1.950000 0.060000
				CHANNELS 3 Zrotation Yrotation Xrotation
				JOINT Neck
				{
					OFFSET 0.000000 0.000000 0.000000
					CHANNELS 3 Zrotation Yrotation Xrotation
					JOINT Neck1
					{
						OFFSET 0.000000 1.600000 0.340000
						CHANNELS 3 Zrotation Yrotation Xrotation
						JOINT Head
						{
							OFFSET 0.000000 1.667000 -0.240000
							CHANNELS 3 Zrotation Yrotation Xrotation
							End Site
							{
								OFFSET 0.000000 0.000000 0.000000
							}
						}
					}
				}
				JOINT LeftShoulder
				{
					OFFSET 0.000000 0.000000 0.000000
					CHANNELS 3 Zrotation Yrotation Xrotation
					JOINT LeftArm
					{
						OFFSET 2.700000 1.550000 -0.730000
						CHANNELS 3 Zrotation Yrotation Xrotation
						JOINT LeftForeArm
						{
							OFFSET 5.450000 0.000000 0.000000
							CHANNELS 3 Zrotation Yrotation Xrotation
							JOINT LeftHand
							{
								OFFSET 3.450000 0.000000 0.000000
								CHANNELS 3 Zrotation Yrotation Xrotation
								JOINT LeftHandIndex1
								{
									OFFSET 0.750000 0.000000 0.000000
									CHANNELS 3 Zrotation Yrotation Xrotation
									End Site
									{
										OFFSET 0.000000 0.000000 0.000000
									}
								}
							}
						}
					}
				}
				JOINT RightShoulder
				{
					OFFSET 0.000000 0.000000 0.000000
					CHANNELS 3 Zrotation Yrotation Xrotation
					JOINT RightArm
					{
						OFFSET -2.700000 1.550000 -0.730000
						CHANNELS 3 Zrotation Yrotation Xrotation
						JOINT RightForeArm
						{
							OFFSET -5.450000 0.000000 0.000000
							CHANNELS 3 Zrotation Yrotation Xrotation
							JOINT RightHand
							{
								OFFSET -3.450000 0.000000 0.000000
								CHANNELS 3 Zrotation Yrotation Xrotation
								JOINT RightHandIndex1
								{
									OFFSET -0.750000 0.000000 0.000000
									CHANNELS 3 Zrotation Yrotation Xrotation
									End Site
									{
										OFFSET 0.000000 0.000000 0.000000
									}
								}
							}
						}
					}
				}
			}
		}
	}
}
MOTION
Frames: 11
Frame Time: 0.016667
-0.258280 17.055150 -3.545450 -4.094171 24.736973 -8.080619 -15.024960 13.177213 3.044267 4.452771 -1.074501 -8.451030 -10.497870 6.129417 10.585960 -0.235788 4.203777 3.304010 0.171570 -0.138810 0.009630 18.215761 -10.964003 3.356033 -7.594457 4.767626 -12.349523 23.010770 -13.678504 30.349341 -0.958628 -6.656846 2.166865 -0.126480 0.211400 0.058170 -4.495541 -0.773140 -8.142872 21.223881 -11.444252 37.123235 -28.020950 -1.019098 2.654365 15.302923 -6.974795 -11.212099 -13.707947 -0.684615 38.903936 7.463930 -10.778250 -18.019440 -26.630905 -1.271395 0.494539 -41.740918 0.190767 -10.330289 -46.875916 -64.951948 23.505263 -3.116711 3.542770 0.609850 -0.111160 -0.072280 0.069480 -5.320809 11.170225 9.440793 -1.097066 -7.942560 -10.155485 -42.740142 44.206865 -13.119576 2.000614 -1.604540 -0.171320 0.311800 0.189900 -0.151540 
-0.257870 17.050630 -3.543860 -4.012502 25.272218 -8.197030 -14.999877 13.089297 3.016602 4.352730 -1.082612 -8.215759 -10.495178 6.112531 10.566334 -0.246185 4.196530 3.304513 0.176700 -0.132450 0.012260 18.247351 -11.016088 3.367866 -7.967597 4.793147 -12.318303 23.401997 -13.854421 30.364609 -0.978774 -6.725976 2.140230 -0.120060 0.210120 0.053920 -4.600405 -0.540497 -8.141581 21.444868 -11.656095 36.692044 -28.439868 -1.073955 3.489812 15.025842 -6.724359 -11.524398 -13.316853 -0.864780 39.157285 8.012750 -10.847120 -17.965710 -26.342526 -1.665986 0.781794 -42.067369 0.920942 -11.242470 -46.890504 -65.481204 23.295451 -3.065661 3.567326 0.620590 -0.114860 -0.068090 0.069180 -5.028243 11.291909 10.031030 -2.729376 -7.603199 -8.918093 -37.116520 37.644078 -9.085289 2.089534 -1.647121 -0.176540 0.317440 0.189770 -0.155410 
-0.256350 17.046000 -3.541710 -3.899656 25.776959 -8.185990 -14.971181 12.992691 2.988207 4.166000 -1.108508 -8.064682 -10.458011 6.076108 10.527285 -0.257497 4.175822 3.311921 0.177460 -0.132980 0.009460 18.284128 -11.068371 3.381372 -8.369862 4.825930 -12.413467 23.800878 -14.033540 30.388297 -0.995612 -6.792855 2.114513 -0.117900 0.213080 0.048810 -4.717028 -0.296164 -8.141621 21.737564 -11.851881 36.082630 -28.873490 -1.117405 4.280814 14.685456 -6.561640 -11.839937 -13.112461 -0.951528 39.481867 8.690330 -11.016070 -17.795680 -25.989941 -2.060446 1.074972 -42.449260 1.597508 -12.075156 -46.775245 -65.865748 22.978043 -3.019657 3.587318 0.630220 -0.118440 -0.067610 0.070220 -4.670150 11.461790 10.573200 -4.164936 -7.260709 -7.787679 -32.721210 31.973065 -6.354454 2.151552 -1.639915 -0.182850 0.323570 0.192130 -0.157260 
-0.255400 17.041140 -3.539490 -3.771188 26.247665 -8.117990 -14.942375 12.893817 2.959646 3.973377 -1.135867 -7.954025 -10.445768 6.045242 10.487584 -0.266416 4.153871 3.318524 0.173780 -0.135940 0.001140 18.322203 -11.114638 3.396610 -8.791176 4.864563 -12.568157 24.245391 -14.227748 30.411461 -1.012650 -6.861459 2.086130 -0.118160 0.217200 0.043380 -4.833746 -0.057381 -8.144120 22.026526 -12.008591 35.420436 -29.270710 -1.137566 5.028500 14.318174 -6.429268 -12.123155 -12.969830 -0.987278 39.850868 9.432040 -11.201520 -17.660200 -25.617338 -2.451932 1.379180 -42.855226 2.188629 -12.819758 -46.702294 -66.308255 22.754235 -2.978522 3.606950 0.638070 -0.123180 -0.067110 0.070970 -4.274260 11.624288 11.024499 -5.422110 -6.943037 -6.772062 -29.151269 27.282070 -4.481164 2.195737 -1.601954 -0.188370 0.329820 0.197480 -0.156320 
-0.254300 17.036740 -3.537490 -3.659990 26.662743 -8.014496 -14.917495 12.805952 2.935136 3.796278 -1.167484 -7.898868 -10.435418 6.014959 10.451717 -0.270913 4.128467 3.326448 0.174460 -0.136590 0.001610 18.355474 -11.153605 3.411505 -9.154109 4.904901 -12.757916 24.630853 -14.395927 30.439954 -1.027366 -6.917364 2.063355 -0.119030 0.216130 0.040030 -4.935477 0.153109 -8.148746 22.310807 -12.112044 34.811870 -29.644853 -1.104151 5.610327 14.002496 -6.258034 -12.358993 -12.747423 -1.112125 40.218104 10.067130 -11.392700 -17.592160 -25.343171 -2.764903 1.627255 -43.144662 2.683900 -13.418447 -46.689155 -66.702287 22.636870 -2.940544 3.624804 0.644710 -0.128610 -0.063870 0.070950 -3.899272 11.722660 11.425608 -6.334755 -6.676752 -5.908777 -26.373722 23.306261 -3.197564 2.234359 -1.551720 -0.190100 0.331420 0.196420 -0.156570 
-0.253220 17.033680 -3.536350 -3.580299 27.027506 -7.946765 -14.896558 12.731366 2.913483 3.669633 -1.186912 -7.831960 -10.432508 5.987968 10.388182 -0.277121 4.110187 3.333280 0.173500 -0.139540 -0.001660 18.384237 -11.183631 3.424242 -9.462796 4.941623 -12.913721 24.979112 -14.546835 30.463051 -1.041240 -6.967009 2.043958 -0.119740 0.217220 0.035440 -5.023165 0.329122 -8.152866 22.578896 -12.209208 34.291960 -29.961499 -1.075545 6.087100 13.727456 -6.145923 -12.553543 -12.622574 -1.171363 40.572203 10.669400 -11.573740 -17.557830 -25.138703 -3.037713 1.843343 -43.379268 3.113276 -13.924390 -46.681496 -67.077248 22.553969 -2.906200 3.640505 0.652950 -0.134150 -0.062230 0.072940 -3.538621 11.830707 11.743065 -7.075719 -6.406083 -5.200614 -24.121554 20.140563 -2.313726 2.259698 -1.494644 -0.194810 0.336040 0.197620 -0.157150 
-0.252610 17.031030 -3.536080 -3.502829 27.327672 -7.891941 -14.879324 12.668766 2.895141 3.567732 -1.204961 -7.794536 -10.458983 5.979006 10.368527 -0.281816 4.098553 3.337989 0.170170 -0.143240 -0.007350 18.408303 -11.205236 3.436033 -9.753617 4.981953 -13.066526 25.298542 -14.687289 30.500200 -1.053808 -7.012593 2.025889 -0.120900 0.219290 0.028430 -5.095901 0.472039 -8.157614 22.792752 -12.262474 33.855054 -30.190866 -1.030182 6.471687 13.475020 -6.065955 -12.720914 -12.558141 -1.197618 40.911017 11.223710 -11.740060 -17.527290 -24.956373 -3.300047 2.043137 -43.601289 3.467098 -14.350111 -46.618236 -67.415464 22.454255 -2.877641 3.651160 0.660180 -0.140200 -0.061530 0.075130 -3.197967 11.954246 11.983470 -7.700204 -6.210292 -4.627328 -22.271284 17.713961 -1.698435 2.277519 -1.437468 -0.200760 0.342870 0.199990 -0.156810 
-0.251310 17.030460 -3.537100 -3.428659 27.572280 -7.881895 -14.864009 12.614300 2.880840 3.491971 -1.215840 -7.719264 -10.518845 5.979548 10.336969 -0.279686 4.090899 3.340297 0.170080 -0.142650 -0.008170 18.429436 -11.225407 3.443517 -10.019943 5.007644 -13.148929 25.552433 -14.798559 30.523268 -1.065772 -7.048818 2.010907 -0.122010 0.217070 0.024170 -5.159823 0.596928 -8.162524 22.995100 -12.321465 33.492107 -30.409747 -0.981335 6.835176 13.266816 -5.978273 -12.899929 -12.505967 -1.222226 41.352280 11.690730 -11.900740 -17.519860 -24.805641 -3.607669 2.230455 -43.745740 3.744378 -14.755621 -46.250246 -67.516844 22.075375 -2.849958 3.656636 0.665760 -0.147010 -0.056780 0.076480 -2.913406 12.140835 12.214852 -8.166942 -6.071924 -4.182832 -20.746496 15.792526 -1.259178 2.294275 -1.385724 -0.201710 0.345820 0.198180 -0.155520 
-0.248840 17.029240 -3.539000 -3.376047 27.750799 -7.856513 -14.849481 12.565308 2.866837 3.405498 -1.231598 -7.684371 -10.539061 5.972521 10.330752 -0.269119 4.071260 3.347927 0.179880 -0.131320 0.000400 18.449141 -11.244987 3.451155 -10.249826 5.039872 -13.255797 25.754138 -14.889423 30.566823 -1.079479 -7.078765 1.999274 -0.121030 0.209470 0.022990 -5.217976 0.713765 -8.166412 23.234740 -12.353523 33.107777 -30.621034 -0.910397 7.167425 13.101412 -5.870295 -13.036009 -12.395495 -1.304761 41.755978 12.001510 -12.043970 -17.490190 -24.709022 -3.884563 2.410380 -43.796829 3.972270 -15.072228 -46.032967 -67.611847 21.836869 -2.820001 3.669531 0.665510 -0.154540 -0.048300 0.081300 -2.665510 12.295182 12.381368 -8.540028 -5.891195 -3.823757 -19.512119 14.305474 -0.955616 2.311243 -1.347795 -0.193720 0.343370 0.186350 -0.152380 
-0.246800 17.029040 -3.541750 -3.344738 27.838141 -7.866234 -14.836903 12.525256 2.854712 3.350302 -1.236776 -7.635228 -10.565051 5.972154 10.320487 -0.264621 4.058537 3.352209 0.184220 -0.123910 0.003500 18.466145 -11.259412 3.458384 -10.445786 5.090272 -13.339428 25.922937 -14.973962 30.643433 -1.089949 -7.110286 1.987808 -0.120180 0.204920 0.018770 -5.265282 0.809562 -8.170158 23.438614 -12.351329 32.811367 -30.757679 -0.827592 7.447868 12.951494 -5.792407 -13.141844 -12.328224 -1.339957 42.130406 12.248980 -12.148490 -17.476930 -24.668925 -4.177296 2.593022 -43.828049 4.178827 -15.354622 -45.828740 -67.720198 21.616314 -2.795679 3.677082 0.666360 -0.159750 -0.044340 0.082080 -2.388060 12.474815 12.474180 -8.963811 -5.752683 -3.539950 -18.468116 13.298362 -0.740092 2.318199 -1.313052 -0.190310 0.344030 0.181080 -0.150880 
-0.245010 17.028370 -3.544640 -3.305656 27.875297 -7.854041 -14.826299 12.491933 2.845876 3.304786 -1.247243 -7.626730 -10.624536 5.984567 10.345553 -0.262730 4.054571 3.352970 0.186980 -0.119390 0.004070 18.480457 -11.269381 3.464143 -10.626568 5.145888 -13.445793 26.040548 -15.051719 30.755292 -1.099256 -7.140510 1.976073 -0.119380 0.202440 0.015920 -5.302788 0.884421 -8.174053 23.578491 -12.315550 32.529700 -30.836634 -0.742073 7.683486 12.812410 -5.719780 -13.235987 -12.262754 -1.335988 42.474645 12.458520 -12.212800 -17.432340 -24.600494 -4.452340 2.766156 -43.888269 4.369678 -15.598644 -45.591659 -67.799754 21.372042 -2.777981 3.681856 0.668760 -0.163840 -0.041180 0.083860 -2.158096 12.640444 12.530368 -9.336206 -5.601555 -3.321165 -17.620825 12.506877 -0.580291 2.321803 -1.283208 -0.189140 0.345350 0.178350 -0.149990 
